<?xml version="1.0" encoding="UTF-8" standalone="no"?>
<svg
   xmlns:dc="http://purl.org/dc/elements/1.1/"
   xmlns:cc="http://creativecommons.org/ns#"
   xmlns:rdf="http://www.w3.org/1999/02/22-rdf-syntax-ns#"
   xmlns:svg="http://www.w3.org/2000/svg"
   xmlns="http://www.w3.org/2000/svg"
   id="svg14"
   version="1.1"
   viewBox="0 0 16 16"
   height="16"
   width="16">
  <metadata
     id="metadata20">
    <rdf:RDF>
      <cc:Work
         rdf:about="">
        <dc:format>image/svg+xml</dc:format>
        <dc:type
           rdf:resource="http://purl.org/dc/dcmitype/StillImage" />
        <dc:title></dc:title>
      </cc:Work>
    </rdf:RDF>
  </metadata>
  <defs
     id="defs18" />
  <path
     style="fill:context-fill;stroke:none;stroke-width:0.33322534;stroke-opacity:1"
     id="path12"
     d="M 11.289919,5.7842826 A 0.36654786,0.36654786 0 0 1 10.926703,5.3667514 L 11.129638,3.913889 10.15462,2.8655621 a 0.36654786,0.36654786 0 0 1 0.205268,-0.6108019 l 1.359558,-0.2432546 0.642125,-1.28824901 a 0.36654786,0.36654786 0 0 1 0.656121,0 l 0.641791,1.28824901 1.362559,0.2435878 a 0.36654786,0.36654786 0 0 1 0.203601,0.6108019 l -0.976684,1.0483269 0.202935,1.4525292 a 0.36654786,0.36654786 0 0 1 -0.53316,0.375545 L 12.689465,5.101504 11.459197,5.7436292 a 0.36421527,0.36421527 0 0 1 -0.169278,0.040653 z M 11.15163,5.1511546 Z m 3.075003,0 z M 11.017007,2.8145787 11.833742,3.6926273 11.667129,4.8829082 12.689465,4.3500809 13.711466,4.8832414 13.544855,3.6929606 14.361923,2.8145787 13.212297,2.6093119 12.689465,1.5596521 12.166634,2.6093119 Z m 3.885074,0.096636 z m -4.424565,0 z M 14.736135,2.411376 Z m -4.094006,0 z"
     fill-opacity="context-fill-opacity" />
  <path
     id="path2"
     d="M 12.784075,14.091346 9.1186604,10.425931 A 4.5753087,4.5753087 0 1 0 8.043816,11.500774 l 3.665416,3.665417 a 0.76014434,0.76014434 0 0 0 1.074843,-1.074845 z M 5.4053557,10.828047 A 3.0405774,3.0405774 0 1 1 8.445933,7.7874692 3.0405774,3.0405774 0 0 1 5.4053557,10.828047 Z"
     style="fill:context-fill;stroke:none;stroke-width:0.76014435;stroke-opacity:1" />
</svg>
